<svg xmlns="http://www.w3.org/2000/svg" width="246" height="139">
    <text fill="#FFF" font-family="Myriad Pro" font-size="12" transform="matrix(1.00453 0 0 .988 189.396 34.925)">
        Facebook
    </text>
    <path fill="#009DFF" fill-rule="evenodd" d="M174.014 46.825c1.664 0 3.013 1.327 3.013 2.964s-1.349 2.964-3.013 2.964c-1.665 0-3.014-1.327-3.014-2.964s1.349-2.964 3.014-2.964z"/>
    <text fill="#FFF" font-family="Myriad Pro" font-size="12" transform="matrix(1.00453 0 0 .988 188.368 53.446)">
        Twitter
    </text>
    <path fill="#0079C4" fill-rule="evenodd" d="M174.014 27.065c1.664 0 3.013 1.327 3.013 2.964s-1.349 2.964-3.013 2.964c-1.665 0-3.014-1.327-3.014-2.964s1.349-2.964 3.014-2.964z"/>
    <text fill="#FFF" font-family="Myriad Pro" font-size="12" transform="matrix(.9923 0 0 .988 191.354 73.449)">
        Instagram
    </text>
    <path fill="#AB7DF6" fill-rule="evenodd" d="M175.977 85.825c1.644 0 2.977 1.327 2.977 2.964s-1.333 2.964-2.977 2.964S173 90.426 173 88.789s1.333-2.964 2.977-2.964z"/>
    <text fill="#FFF" font-family="Myriad Pro" font-size="12" transform="matrix(.9923 0 0 .988 190.468 92.925)">
        Others
    </text>
    <path fill="#F60000" fill-rule="evenodd" d="M175.977 66.065c1.644 0 2.977 1.327 2.977 2.964s-1.333 2.964-2.977 2.964S173 70.666 173 69.029s1.333-2.964 2.977-2.964z"/>
    <path fill="#0079C4" fill-rule="evenodd" d="M127.434 108.13c-13.77 20.585-37.533 32.296-62.326 30.716-24.794-1.581-46.864-16.212-57.888-38.378-11.023-22.166-9.331-48.508 4.439-69.093 6.503-9.727 15.382-17.654 25.791-23.043l6.422 12.289c-17.631 9.127-29.037 26.931-29.906 46.697-.869 19.765 8.914 38.492 25.675 49.131 16.761 10.639 37.95 11.562 55.581 2.435 8.334-4.316 15.428-10.65 20.633-18.427l11.579 7.673z"/>
    <path fill="#F60000" fill-rule="evenodd" d="M107.14 10.647c20.939 13.586 33.038 37.3 31.745 62.225-.652 12.527-4.67 24.646-11.622 35.089l-11.633-7.742c11.075-16.613 12.437-37.871 3.575-55.764-4.448-9-11.249-16.637-19.668-22.097l7.603-11.711z"/>
    <path fill="#009DFF" fill-rule="evenodd" d="M68.713-.002c13.592 0 26.903 3.941 38.302 11.343l-7.658 11.8c-9.124-5.924-19.772-9.067-30.644-9.067V-.002z"/>
    <path fill="#AB7DF6" fill-rule="evenodd" d="M37.259 8.255C47.292 3.21 58.44.58 69.753.58v13.603c-9.048 0-17.966 2.109-25.993 6.144L37.259 8.255z"/>
    <text x="47" y="84.031" font-family="Myriad Pro" font-size="12">
        Sessions
    </text>
    <text x="55" y="70.062" fill="#FFF" font-family="Heebo" font-size="17">
        430
    </text>
</svg>
